<mxfile host="app.diagrams.net" modified="2024-05-11T17:01:28.125Z" agent="Mozilla/5.0 (Windows NT 10.0; Win64; x64) AppleWebKit/537.36 (KHTML, like Gecko) Chrome/121.0.0.0 Safari/537.36 OPR/107.0.0.0" etag="9RgVS-X-lFbPGlE3qphE" version="24.3.1" type="github">
  <diagram name="Page-1" id="5f0bae14-7c28-e335-631c-24af17079c00">
    <mxGraphModel dx="2652" dy="911" grid="1" gridSize="10" guides="1" tooltips="1" connect="1" arrows="1" fold="1" page="1" pageScale="1" pageWidth="1100" pageHeight="850" background="none" math="0" shadow="0">
      <root>
        <mxCell id="0" />
        <mxCell id="1" parent="0" />
        <mxCell id="3eu0gLsUePaidYde5kII-1" value="&lt;b&gt;User&lt;/b&gt;" style="whiteSpace=wrap;html=1;" parent="1" vertex="1">
          <mxGeometry x="650" y="279.93" width="120" height="60" as="geometry" />
        </mxCell>
        <mxCell id="3eu0gLsUePaidYde5kII-2" value="&lt;b&gt;Auth&lt;/b&gt;" style="whiteSpace=wrap;html=1;" parent="1" vertex="1">
          <mxGeometry x="650" y="339.93" width="120" height="60" as="geometry" />
        </mxCell>
        <mxCell id="3eu0gLsUePaidYde5kII-3" value="" style="shape=cylinder3;whiteSpace=wrap;html=1;boundedLbl=1;backgroundOutline=1;size=15;labelBorderColor=#99CCFF;fillColor=#dae8fc;strokeColor=#6c8ebf;" parent="1" vertex="1">
          <mxGeometry x="-60" y="509.93" width="870" height="240.07" as="geometry" />
        </mxCell>
        <mxCell id="3eu0gLsUePaidYde5kII-4" value="&lt;b style=&quot;forced-color-adjust: none; color: rgb(0, 0, 0); font-family: Helvetica; font-size: 24px; font-style: normal; font-variant-ligatures: normal; font-variant-caps: normal; letter-spacing: normal; orphans: 2; text-indent: 0px; text-transform: none; widows: 2; word-spacing: 0px; -webkit-text-stroke-width: 0px; white-space: normal; background-color: rgb(251, 251, 251); text-decoration-thickness: initial; text-decoration-style: initial; text-decoration-color: initial;&quot;&gt;SQL DB for Bussines Logic&lt;/b&gt;" style="text;whiteSpace=wrap;html=1;strokeWidth=7;fontSize=24;align=center;" parent="1" vertex="1">
          <mxGeometry x="200" y="750.0000000000001" width="330" height="40" as="geometry" />
        </mxCell>
        <mxCell id="3eu0gLsUePaidYde5kII-24" style="edgeStyle=orthogonalEdgeStyle;rounded=0;orthogonalLoop=1;jettySize=auto;html=1;fillColor=#e1d5e7;strokeColor=#9673a6;entryX=0.5;entryY=0;entryDx=0;entryDy=0;" parent="1" source="3eu0gLsUePaidYde5kII-6" target="kIv36qMvWvy2csFwaT8d-3" edge="1">
          <mxGeometry relative="1" as="geometry">
            <Array as="points">
              <mxPoint x="450" y="490" />
              <mxPoint x="590" y="490" />
            </Array>
          </mxGeometry>
        </mxCell>
        <mxCell id="3eu0gLsUePaidYde5kII-6" value="&lt;b&gt;Catalogue&lt;/b&gt;" style="rounded=0;whiteSpace=wrap;html=1;fillColor=#e1d5e7;strokeColor=#9673a6;" parent="1" vertex="1">
          <mxGeometry x="390" y="279.93" width="120" height="60" as="geometry" />
        </mxCell>
        <mxCell id="3eu0gLsUePaidYde5kII-18" style="edgeStyle=orthogonalEdgeStyle;rounded=0;orthogonalLoop=1;jettySize=auto;html=1;entryX=0.39;entryY=0.012;entryDx=0;entryDy=0;fillColor=#ffe6cc;strokeColor=#d79b00;entryPerimeter=0;" parent="1" source="3eu0gLsUePaidYde5kII-7" target="JClIsUNEsZ8_a61VlDSI-20" edge="1">
          <mxGeometry relative="1" as="geometry">
            <Array as="points">
              <mxPoint x="180" y="490" />
              <mxPoint x="427" y="490" />
            </Array>
          </mxGeometry>
        </mxCell>
        <mxCell id="3eu0gLsUePaidYde5kII-19" style="edgeStyle=orthogonalEdgeStyle;rounded=0;orthogonalLoop=1;jettySize=auto;html=1;entryX=0.5;entryY=0;entryDx=0;entryDy=0;fillColor=#ffe6cc;strokeColor=#d79b00;" parent="1" source="3eu0gLsUePaidYde5kII-7" target="3eu0gLsUePaidYde5kII-14" edge="1">
          <mxGeometry relative="1" as="geometry">
            <Array as="points">
              <mxPoint x="180" y="490" />
              <mxPoint x="45" y="490" />
            </Array>
            <mxPoint x="280" y="549.9300000000001" as="targetPoint" />
          </mxGeometry>
        </mxCell>
        <mxCell id="3eu0gLsUePaidYde5kII-7" value="&lt;b&gt;Profile&lt;/b&gt;" style="whiteSpace=wrap;html=1;fillColor=#ffe6cc;strokeColor=#d79b00;" parent="1" vertex="1">
          <mxGeometry x="120" y="279.93" width="120" height="60" as="geometry" />
        </mxCell>
        <mxCell id="3eu0gLsUePaidYde5kII-14" value="&lt;div style=&quot;text-align: center; font-size: 12px;&quot;&gt;&lt;font style=&quot;font-size: 12px;&quot; color=&quot;#040404&quot;&gt;&lt;b style=&quot;&quot;&gt;PURCHASE&lt;/b&gt;&lt;/font&gt;&lt;/div&gt;&lt;div style=&quot;text-align: center; font-size: 12px;&quot;&gt;&lt;font style=&quot;font-size: 12px;&quot; color=&quot;#040404&quot;&gt;&lt;b style=&quot;&quot;&gt;&lt;br&gt;&lt;/b&gt;&lt;/font&gt;&lt;/div&gt;&lt;span data-lucid-type=&quot;application/vnd.lucid.text&quot; data-lucid-content=&quot;{&amp;quot;t&amp;quot;:&amp;quot;COMPRA\nid: int\nnombre: String(255)\nciudad: String (255)\nid_cliente: int\nid_producto: int\n&amp;quot;,&amp;quot;m&amp;quot;:[{&amp;quot;s&amp;quot;:0,&amp;quot;n&amp;quot;:&amp;quot;s&amp;quot;,&amp;quot;v&amp;quot;:22.44444444444444,&amp;quot;e&amp;quot;:7},{&amp;quot;s&amp;quot;:0,&amp;quot;n&amp;quot;:&amp;quot;c&amp;quot;,&amp;quot;v&amp;quot;:&amp;quot;#040404ff&amp;quot;,&amp;quot;e&amp;quot;:89},{&amp;quot;s&amp;quot;:7,&amp;quot;n&amp;quot;:&amp;quot;s&amp;quot;,&amp;quot;v&amp;quot;:17.999999999999993,&amp;quot;e&amp;quot;:89},{&amp;quot;s&amp;quot;:7,&amp;quot;n&amp;quot;:&amp;quot;a&amp;quot;,&amp;quot;v&amp;quot;:&amp;quot;left&amp;quot;},{&amp;quot;s&amp;quot;:15,&amp;quot;n&amp;quot;:&amp;quot;fsp&amp;quot;,&amp;quot;v&amp;quot;:&amp;quot;ss_presetShapeStyle5_textStyle&amp;quot;,&amp;quot;e&amp;quot;:89},{&amp;quot;s&amp;quot;:15,&amp;quot;n&amp;quot;:&amp;quot;fsp2&amp;quot;,&amp;quot;v&amp;quot;:&amp;quot;ss_presetShapeStyle5_textStyle&amp;quot;,&amp;quot;e&amp;quot;:89},{&amp;quot;s&amp;quot;:15,&amp;quot;n&amp;quot;:&amp;quot;a&amp;quot;,&amp;quot;v&amp;quot;:&amp;quot;left&amp;quot;},{&amp;quot;s&amp;quot;:35,&amp;quot;n&amp;quot;:&amp;quot;a&amp;quot;,&amp;quot;v&amp;quot;:&amp;quot;left&amp;quot;},{&amp;quot;s&amp;quot;:56,&amp;quot;n&amp;quot;:&amp;quot;a&amp;quot;,&amp;quot;v&amp;quot;:&amp;quot;left&amp;quot;},{&amp;quot;s&amp;quot;:72,&amp;quot;n&amp;quot;:&amp;quot;a&amp;quot;,&amp;quot;v&amp;quot;:&amp;quot;left&amp;quot;}]}&quot; style=&quot;&quot;&gt;&lt;font style=&quot;&quot;&gt;&lt;div style=&quot;&quot;&gt;&lt;font color=&quot;#040404&quot;&gt;&lt;span style=&quot;font-size: 12px;&quot;&gt;id: int&lt;/span&gt;&lt;/font&gt;&lt;/div&gt;&lt;div style=&quot;&quot;&gt;&lt;font color=&quot;#040404&quot;&gt;&lt;span style=&quot;font-size: 12px;&quot;&gt;name: String (255)&lt;/span&gt;&lt;/font&gt;&lt;/div&gt;&lt;div style=&quot;&quot;&gt;&lt;font color=&quot;#040404&quot;&gt;&lt;span style=&quot;font-size: 12px;&quot;&gt;city: String (255)&lt;/span&gt;&lt;/font&gt;&lt;/div&gt;&lt;div style=&quot;&quot;&gt;&lt;font color=&quot;#040404&quot;&gt;&lt;span style=&quot;font-size: 12px;&quot;&gt;date: Date&lt;/span&gt;&lt;/font&gt;&lt;/div&gt;&lt;div style=&quot;&quot;&gt;&lt;font color=&quot;#040404&quot;&gt;&lt;span style=&quot;font-size: 12px;&quot;&gt;id_user: int&lt;/span&gt;&lt;/font&gt;&lt;/div&gt;&lt;div style=&quot;&quot;&gt;&lt;font color=&quot;#040404&quot;&gt;&lt;span style=&quot;font-size: 12px;&quot;&gt;id_product: int&lt;/span&gt;&lt;/font&gt;&lt;/div&gt;&lt;div style=&quot;&quot;&gt;&lt;font color=&quot;#040404&quot;&gt;&lt;span style=&quot;font-size: 12px;&quot;&gt;id_offered_service: int&lt;/span&gt;&lt;/font&gt;&lt;/div&gt;&lt;/font&gt;&lt;/span&gt;" style="rounded=1;whiteSpace=wrap;html=1;align=left;spacingLeft=15;fontSize=13;verticalAlign=middle;fillColor=#ffe6cc;strokeColor=#d79b00;" parent="1" vertex="1">
          <mxGeometry x="-40" y="560.0000000000001" width="150" height="170" as="geometry" />
        </mxCell>
        <mxCell id="3eu0gLsUePaidYde5kII-17" value="&lt;span data-lucid-content=&quot;{&amp;quot;t&amp;quot;:&amp;quot;PRODUCTO\n\n-id: int\n-nombre: String (255)\n-descripcion: TEXT\n-precio: double&amp;quot;,&amp;quot;m&amp;quot;:[{&amp;quot;s&amp;quot;:0,&amp;quot;n&amp;quot;:&amp;quot;a&amp;quot;,&amp;quot;v&amp;quot;:&amp;quot;center&amp;quot;},{&amp;quot;s&amp;quot;:0,&amp;quot;n&amp;quot;:&amp;quot;fsp&amp;quot;,&amp;quot;v&amp;quot;:&amp;quot;ss_presetShapeStyle1_textStyle&amp;quot;,&amp;quot;e&amp;quot;:40},{&amp;quot;s&amp;quot;:0,&amp;quot;n&amp;quot;:&amp;quot;fsp2&amp;quot;,&amp;quot;v&amp;quot;:&amp;quot;ss_presetShapeStyle1_textStyle&amp;quot;,&amp;quot;e&amp;quot;:40},{&amp;quot;s&amp;quot;:9,&amp;quot;n&amp;quot;:&amp;quot;a&amp;quot;,&amp;quot;v&amp;quot;:&amp;quot;left&amp;quot;},{&amp;quot;s&amp;quot;:10,&amp;quot;n&amp;quot;:&amp;quot;a&amp;quot;,&amp;quot;v&amp;quot;:&amp;quot;left&amp;quot;},{&amp;quot;s&amp;quot;:19,&amp;quot;n&amp;quot;:&amp;quot;a&amp;quot;,&amp;quot;v&amp;quot;:&amp;quot;left&amp;quot;},{&amp;quot;s&amp;quot;:40,&amp;quot;n&amp;quot;:&amp;quot;c&amp;quot;,&amp;quot;v&amp;quot;:&amp;quot;#282c33ff&amp;quot;,&amp;quot;e&amp;quot;:42},{&amp;quot;s&amp;quot;:40,&amp;quot;n&amp;quot;:&amp;quot;fsp&amp;quot;,&amp;quot;v&amp;quot;:&amp;quot;ss_presetShapeStyle4_textStyle&amp;quot;,&amp;quot;e&amp;quot;:42},{&amp;quot;s&amp;quot;:40,&amp;quot;n&amp;quot;:&amp;quot;fsp2&amp;quot;,&amp;quot;v&amp;quot;:&amp;quot;ss_presetShapeStyle4_textStyle&amp;quot;,&amp;quot;e&amp;quot;:42},{&amp;quot;s&amp;quot;:41,&amp;quot;n&amp;quot;:&amp;quot;a&amp;quot;,&amp;quot;v&amp;quot;:&amp;quot;left&amp;quot;},{&amp;quot;s&amp;quot;:42,&amp;quot;n&amp;quot;:&amp;quot;c&amp;quot;,&amp;quot;v&amp;quot;:&amp;quot;#000000ff&amp;quot;,&amp;quot;e&amp;quot;:75},{&amp;quot;s&amp;quot;:42,&amp;quot;n&amp;quot;:&amp;quot;fsp&amp;quot;,&amp;quot;v&amp;quot;:&amp;quot;ss_presetShapeStyle5_textStyle&amp;quot;,&amp;quot;e&amp;quot;:75},{&amp;quot;s&amp;quot;:42,&amp;quot;n&amp;quot;:&amp;quot;fsp2&amp;quot;,&amp;quot;v&amp;quot;:&amp;quot;ss_presetShapeStyle5_textStyle&amp;quot;,&amp;quot;e&amp;quot;:75},{&amp;quot;s&amp;quot;:60,&amp;quot;n&amp;quot;:&amp;quot;a&amp;quot;,&amp;quot;v&amp;quot;:&amp;quot;left&amp;quot;}]}&quot; data-lucid-type=&quot;application/vnd.lucid.text&quot;&gt;&lt;b&gt;SUBSCRIPTION&lt;/b&gt;&lt;br&gt;&lt;br&gt;&lt;div style=&quot;text-align: left;&quot;&gt;&lt;div&gt;id: int&lt;/div&gt;&lt;div&gt;name: String (255)&lt;/div&gt;&lt;div&gt;description: TEXT&lt;/div&gt;&lt;div&gt;price: double&lt;/div&gt;&lt;/div&gt;&lt;/span&gt;" style="rounded=1;whiteSpace=wrap;html=1;verticalAlign=middle;fillColor=#e1d5e7;strokeColor=#9673a6;" parent="1" vertex="1">
          <mxGeometry x="670" y="560.14" width="140" height="169.93" as="geometry" />
        </mxCell>
        <mxCell id="3eu0gLsUePaidYde5kII-28" style="edgeStyle=orthogonalEdgeStyle;rounded=0;orthogonalLoop=1;jettySize=auto;html=1;entryX=0.5;entryY=0;entryDx=0;entryDy=0;" parent="1" target="3eu0gLsUePaidYde5kII-7" edge="1">
          <mxGeometry relative="1" as="geometry">
            <mxPoint x="250" y="100" as="sourcePoint" />
            <Array as="points">
              <mxPoint x="180" y="100" />
            </Array>
          </mxGeometry>
        </mxCell>
        <mxCell id="3eu0gLsUePaidYde5kII-29" style="edgeStyle=orthogonalEdgeStyle;rounded=0;orthogonalLoop=1;jettySize=auto;html=1;entryX=0.5;entryY=0;entryDx=0;entryDy=0;" parent="1" target="3eu0gLsUePaidYde5kII-1" edge="1">
          <mxGeometry relative="1" as="geometry">
            <mxPoint x="530" y="190" as="sourcePoint" />
            <Array as="points">
              <mxPoint x="710" y="190" />
            </Array>
          </mxGeometry>
        </mxCell>
        <mxCell id="3eu0gLsUePaidYde5kII-42" style="edgeStyle=orthogonalEdgeStyle;rounded=0;orthogonalLoop=1;jettySize=auto;html=1;entryX=0.5;entryY=0;entryDx=0;entryDy=0;" parent="1" target="3eu0gLsUePaidYde5kII-6" edge="1">
          <mxGeometry relative="1" as="geometry">
            <mxPoint x="450" y="210" as="sourcePoint" />
          </mxGeometry>
        </mxCell>
        <mxCell id="3eu0gLsUePaidYde5kII-26" value="Actor" style="shape=umlActor;verticalLabelPosition=bottom;verticalAlign=top;html=1;outlineConnect=0;strokeWidth=4;" parent="1" vertex="1">
          <mxGeometry x="415" y="59.93000000000001" width="70" height="130" as="geometry" />
        </mxCell>
        <mxCell id="3eu0gLsUePaidYde5kII-40" style="edgeStyle=orthogonalEdgeStyle;rounded=0;orthogonalLoop=1;jettySize=auto;html=1;entryX=0.5;entryY=0;entryDx=0;entryDy=0;fillColor=#ffe6cc;strokeColor=#d79b00;" parent="1" source="3eu0gLsUePaidYde5kII-7" target="-nUrzhYDNhNudkDRQ27h-1" edge="1">
          <mxGeometry relative="1" as="geometry">
            <Array as="points">
              <mxPoint x="180" y="490" />
              <mxPoint x="224" y="490" />
            </Array>
          </mxGeometry>
        </mxCell>
        <mxCell id="-nUrzhYDNhNudkDRQ27h-14" value="&lt;b&gt;Allows Edition if is already logged and&amp;nbsp;&lt;/b&gt;&lt;div&gt;&lt;b&gt;shows Data on DB and depends&amp;nbsp;&lt;/b&gt;&lt;/div&gt;&lt;div&gt;&lt;b&gt;on the role property&lt;/b&gt;&lt;/div&gt;" style="edgeLabel;html=1;align=center;verticalAlign=middle;resizable=0;points=[];fontSize=12;" parent="3eu0gLsUePaidYde5kII-40" vertex="1" connectable="0">
          <mxGeometry x="-0.7971" y="-3" relative="1" as="geometry">
            <mxPoint as="offset" />
          </mxGeometry>
        </mxCell>
        <mxCell id="-nUrzhYDNhNudkDRQ27h-1" value="&lt;span data-lucid-type=&quot;application/vnd.lucid.text&quot; data-lucid-content=&quot;{&amp;quot;t&amp;quot;:&amp;quot;USERS\nid: int\nnombre. String (255)\napellido.: String (255)\ndocumento: Float\ncelulart. Float\nemail: String (255)\ncontraseña String (255)\nciudad: String (255)\nrol: String (255)&amp;quot;,&amp;quot;m&amp;quot;:[{&amp;quot;s&amp;quot;:0,&amp;quot;n&amp;quot;:&amp;quot;a&amp;quot;,&amp;quot;v&amp;quot;:&amp;quot;center&amp;quot;}]}&quot; style=&quot;font-size: 11px;&quot;&gt;&lt;b style=&quot;font-size: 11px;&quot;&gt;USERS&lt;/b&gt;&lt;br style=&quot;font-size: 11px;&quot;&gt;&lt;div style=&quot;text-align: left; font-size: 11px;&quot;&gt;&lt;span data-lucid-content=&quot;{&amp;quot;t&amp;quot;:&amp;quot;id: int\nnombre. String (255)\napellido.: String (255)\ndocumento: Float\ncelulart. Float\nemail: String (255)\ncontraseña String (255)\nciudad: String (255)\nrol: String (255)&amp;quot;,&amp;quot;m&amp;quot;:[]}&quot; data-lucid-type=&quot;application/vnd.lucid.text&quot;&gt;id: int&lt;br&gt;nombre. String (255)&lt;br&gt;apellido.: String (255)&lt;br&gt;documento: Float&lt;br&gt;celulart. Float&lt;br&gt;email: String (255)&lt;br&gt;contraseña String (255)&lt;br&gt;ciudad: String (255)&lt;br&gt;rol: String (255)&lt;/span&gt;&lt;br&gt;&lt;/div&gt;&lt;/span&gt;" style="rounded=1;whiteSpace=wrap;html=1;fontSize=11;verticalAlign=middle;fillColor=#ffe6cc;strokeColor=#d79b00;spacingLeft=15;spacingTop=0;" parent="1" vertex="1">
          <mxGeometry x="130" y="560.0000000000001" width="148.75" height="170" as="geometry" />
        </mxCell>
        <mxCell id="-nUrzhYDNhNudkDRQ27h-3" value="&lt;b&gt;JWT&lt;/b&gt;" style="whiteSpace=wrap;html=1;" parent="1" vertex="1">
          <mxGeometry x="850" y="270" width="120" height="60" as="geometry" />
        </mxCell>
        <mxCell id="JClIsUNEsZ8_a61VlDSI-1" value="" style="shape=cylinder3;whiteSpace=wrap;html=1;boundedLbl=1;backgroundOutline=1;size=15;" parent="1" vertex="1">
          <mxGeometry x="825" y="514.93" width="170" height="230.07" as="geometry" />
        </mxCell>
        <mxCell id="JClIsUNEsZ8_a61VlDSI-2" value="&lt;span data-lucid-type=&quot;application/vnd.lucid.text&quot; data-lucid-content=&quot;{&amp;quot;t&amp;quot;:&amp;quot;USERS\nid: int\nnombre. String (255)\napellido.: String (255)\ndocumento: Float\ncelulart. Float\nemail: String (255)\ncontraseña String (255)\nciudad: String (255)\nrol: String (255)&amp;quot;,&amp;quot;m&amp;quot;:[{&amp;quot;s&amp;quot;:0,&amp;quot;n&amp;quot;:&amp;quot;a&amp;quot;,&amp;quot;v&amp;quot;:&amp;quot;center&amp;quot;}]}&quot; style=&quot;font-size: 11px;&quot;&gt;&lt;b style=&quot;font-size: 11px;&quot;&gt;USERS&lt;/b&gt;&lt;br style=&quot;font-size: 11px;&quot;&gt;&lt;div style=&quot;text-align: left; font-size: 11px;&quot;&gt;&lt;span data-lucid-content=&quot;{&amp;quot;t&amp;quot;:&amp;quot;id: int\nnombre. String (255)\napellido.: String (255)\ndocumento: Float\ncelulart. Float\nemail: String (255)\ncontraseña String (255)\nciudad: String (255)\nrol: String (255)&amp;quot;,&amp;quot;m&amp;quot;:[]}&quot; data-lucid-type=&quot;application/vnd.lucid.text&quot;&gt;_id: string&lt;/span&gt;&lt;/div&gt;&lt;div style=&quot;text-align: left; font-size: 11px;&quot;&gt;&lt;div&gt;id: number&lt;/div&gt;&lt;div&gt;name: string&lt;/div&gt;&lt;div&gt;last_name: string&lt;/div&gt;&lt;div&gt;document: number&lt;/div&gt;&lt;div&gt;phone: number&lt;/div&gt;&lt;div&gt;email: string&lt;/div&gt;&lt;div&gt;password: string&lt;/div&gt;&lt;div&gt;city: string&lt;/div&gt;&lt;div&gt;role: &quot;user&quot; (default)&amp;nbsp; | &quot;admin&quot;&lt;/div&gt;&lt;/div&gt;&lt;/span&gt;" style="rounded=1;whiteSpace=wrap;html=1;fontSize=11;verticalAlign=middle;fillColor=#eeeeee;strokeColor=#36393d;spacingLeft=15;spacingTop=0;" parent="1" vertex="1">
          <mxGeometry x="835.63" y="559.9300000000001" width="148.75" height="170" as="geometry" />
        </mxCell>
        <mxCell id="JClIsUNEsZ8_a61VlDSI-3" style="edgeStyle=orthogonalEdgeStyle;rounded=0;orthogonalLoop=1;jettySize=auto;html=1;exitX=0.5;exitY=1;exitDx=0;exitDy=0;" parent="1" target="-nUrzhYDNhNudkDRQ27h-3" edge="1">
          <mxGeometry relative="1" as="geometry">
            <Array as="points">
              <mxPoint x="710" y="449.93" />
              <mxPoint x="909" y="449.93" />
            </Array>
            <mxPoint x="710" y="399.93" as="sourcePoint" />
            <mxPoint x="820" y="549.9300000000001" as="targetPoint" />
          </mxGeometry>
        </mxCell>
        <mxCell id="JClIsUNEsZ8_a61VlDSI-12" value="" style="endArrow=none;dashed=1;html=1;rounded=0;" parent="1" edge="1">
          <mxGeometry width="50" height="50" relative="1" as="geometry">
            <mxPoint x="890" y="449.93" as="sourcePoint" />
            <mxPoint x="780" y="449.93" as="targetPoint" />
          </mxGeometry>
        </mxCell>
        <mxCell id="2w4d96TiAbUTxQoSpIZL-3" value="&lt;b&gt;Validates Data on DB&lt;/b&gt;" style="edgeLabel;html=1;align=center;verticalAlign=middle;resizable=0;points=[];fontSize=12;" vertex="1" connectable="0" parent="JClIsUNEsZ8_a61VlDSI-12">
          <mxGeometry x="0.0338" y="1" relative="1" as="geometry">
            <mxPoint x="-23" as="offset" />
          </mxGeometry>
        </mxCell>
        <mxCell id="JClIsUNEsZ8_a61VlDSI-14" value="" style="endArrow=none;dashed=1;html=1;rounded=0;exitX=0.5;exitY=0;exitDx=0;exitDy=0;" parent="1" source="JClIsUNEsZ8_a61VlDSI-2" edge="1">
          <mxGeometry width="50" height="50" relative="1" as="geometry">
            <mxPoint x="840" y="499.93" as="sourcePoint" />
            <mxPoint x="810" y="459.93" as="targetPoint" />
          </mxGeometry>
        </mxCell>
        <mxCell id="JClIsUNEsZ8_a61VlDSI-15" style="edgeStyle=orthogonalEdgeStyle;rounded=0;orthogonalLoop=1;jettySize=auto;html=1;" parent="1" source="-nUrzhYDNhNudkDRQ27h-3" edge="1">
          <mxGeometry relative="1" as="geometry">
            <Array as="points">
              <mxPoint x="909" y="100" />
            </Array>
            <mxPoint x="490" y="100" as="targetPoint" />
          </mxGeometry>
        </mxCell>
        <mxCell id="2w4d96TiAbUTxQoSpIZL-18" value="&lt;b style=&quot;font-size: 11px;&quot;&gt;Allows Access to the platform&lt;/b&gt;" style="edgeLabel;html=1;align=center;verticalAlign=middle;resizable=0;points=[];fontSize=12;" vertex="1" connectable="0" parent="JClIsUNEsZ8_a61VlDSI-15">
          <mxGeometry x="0.1127" relative="1" as="geometry">
            <mxPoint x="-27" as="offset" />
          </mxGeometry>
        </mxCell>
        <mxCell id="JClIsUNEsZ8_a61VlDSI-18" value="This DB is an internal DB required to deploy the Auth API" style="shape=note;whiteSpace=wrap;html=1;backgroundOutline=1;darkOpacity=0.05;" parent="1" vertex="1">
          <mxGeometry x="1000" y="569.9300000000001" width="80" height="130" as="geometry" />
        </mxCell>
        <mxCell id="JClIsUNEsZ8_a61VlDSI-19" value="This DB is used for manage users on the platform, so it need a user form to catch user data on platform" style="shape=note;whiteSpace=wrap;html=1;backgroundOutline=1;darkOpacity=0.05;align=left;fillColor=#ffe6cc;strokeColor=#d79b00;" parent="1" vertex="1">
          <mxGeometry x="278.75" y="559.9300000000001" width="90" height="170" as="geometry" />
        </mxCell>
        <mxCell id="kIv36qMvWvy2csFwaT8d-1" value="" style="edgeStyle=orthogonalEdgeStyle;rounded=0;orthogonalLoop=1;jettySize=auto;html=1;fillColor=#e1d5e7;strokeColor=#9673a6;" parent="1" source="3eu0gLsUePaidYde5kII-6" target="JClIsUNEsZ8_a61VlDSI-20" edge="1">
          <mxGeometry relative="1" as="geometry">
            <Array as="points">
              <mxPoint x="450" y="520" />
              <mxPoint x="450" y="520" />
            </Array>
            <mxPoint x="450" y="340" as="sourcePoint" />
            <mxPoint x="559" y="625" as="targetPoint" />
          </mxGeometry>
        </mxCell>
        <mxCell id="kIv36qMvWvy2csFwaT8d-2" value="&lt;b&gt;Only Read DB&lt;/b&gt;" style="edgeLabel;html=1;align=center;verticalAlign=middle;resizable=0;points=[];fontSize=12;" parent="kIv36qMvWvy2csFwaT8d-1" vertex="1" connectable="0">
          <mxGeometry x="-0.0152" y="2" relative="1" as="geometry">
            <mxPoint y="-18" as="offset" />
          </mxGeometry>
        </mxCell>
        <mxCell id="JClIsUNEsZ8_a61VlDSI-20" value="&lt;b&gt;PRODUCTS&lt;/b&gt;&lt;div style=&quot;text-align: left;&quot;&gt;&lt;b&gt;id: int&lt;/b&gt;&lt;/div&gt;&lt;div style=&quot;text-align: left;&quot;&gt;&lt;b&gt;name: String(255)&lt;/b&gt;&lt;/div&gt;&lt;div style=&quot;text-align: left;&quot;&gt;description: TEXT&lt;/div&gt;&lt;div style=&quot;text-align: left;&quot;&gt;category: String (255)&lt;/div&gt;&lt;div style=&quot;text-align: left;&quot;&gt;&lt;br&gt;&lt;/div&gt;" style="rounded=1;whiteSpace=wrap;html=1;" parent="1" vertex="1">
          <mxGeometry x="380" y="560.07" width="120" height="170" as="geometry" />
        </mxCell>
        <mxCell id="kIv36qMvWvy2csFwaT8d-3" value="&lt;span data-lucid-type=&quot;application/vnd.lucid.text&quot; data-lucid-content=&quot;{&amp;quot;t&amp;quot;:&amp;quot;PRODUCTO\n\n-id: int\n-nombre: String (255)\n-descripcion: TEXT\n-precio: double&amp;quot;,&amp;quot;m&amp;quot;:[{&amp;quot;s&amp;quot;:0,&amp;quot;n&amp;quot;:&amp;quot;a&amp;quot;,&amp;quot;v&amp;quot;:&amp;quot;center&amp;quot;},{&amp;quot;s&amp;quot;:0,&amp;quot;n&amp;quot;:&amp;quot;fsp&amp;quot;,&amp;quot;v&amp;quot;:&amp;quot;ss_presetShapeStyle1_textStyle&amp;quot;,&amp;quot;e&amp;quot;:40},{&amp;quot;s&amp;quot;:0,&amp;quot;n&amp;quot;:&amp;quot;fsp2&amp;quot;,&amp;quot;v&amp;quot;:&amp;quot;ss_presetShapeStyle1_textStyle&amp;quot;,&amp;quot;e&amp;quot;:40},{&amp;quot;s&amp;quot;:9,&amp;quot;n&amp;quot;:&amp;quot;a&amp;quot;,&amp;quot;v&amp;quot;:&amp;quot;left&amp;quot;},{&amp;quot;s&amp;quot;:10,&amp;quot;n&amp;quot;:&amp;quot;a&amp;quot;,&amp;quot;v&amp;quot;:&amp;quot;left&amp;quot;},{&amp;quot;s&amp;quot;:19,&amp;quot;n&amp;quot;:&amp;quot;a&amp;quot;,&amp;quot;v&amp;quot;:&amp;quot;left&amp;quot;},{&amp;quot;s&amp;quot;:40,&amp;quot;n&amp;quot;:&amp;quot;c&amp;quot;,&amp;quot;v&amp;quot;:&amp;quot;#282c33ff&amp;quot;,&amp;quot;e&amp;quot;:42},{&amp;quot;s&amp;quot;:40,&amp;quot;n&amp;quot;:&amp;quot;fsp&amp;quot;,&amp;quot;v&amp;quot;:&amp;quot;ss_presetShapeStyle4_textStyle&amp;quot;,&amp;quot;e&amp;quot;:42},{&amp;quot;s&amp;quot;:40,&amp;quot;n&amp;quot;:&amp;quot;fsp2&amp;quot;,&amp;quot;v&amp;quot;:&amp;quot;ss_presetShapeStyle4_textStyle&amp;quot;,&amp;quot;e&amp;quot;:42},{&amp;quot;s&amp;quot;:41,&amp;quot;n&amp;quot;:&amp;quot;a&amp;quot;,&amp;quot;v&amp;quot;:&amp;quot;left&amp;quot;},{&amp;quot;s&amp;quot;:42,&amp;quot;n&amp;quot;:&amp;quot;c&amp;quot;,&amp;quot;v&amp;quot;:&amp;quot;#000000ff&amp;quot;,&amp;quot;e&amp;quot;:75},{&amp;quot;s&amp;quot;:42,&amp;quot;n&amp;quot;:&amp;quot;fsp&amp;quot;,&amp;quot;v&amp;quot;:&amp;quot;ss_presetShapeStyle5_textStyle&amp;quot;,&amp;quot;e&amp;quot;:75},{&amp;quot;s&amp;quot;:42,&amp;quot;n&amp;quot;:&amp;quot;fsp2&amp;quot;,&amp;quot;v&amp;quot;:&amp;quot;ss_presetShapeStyle5_textStyle&amp;quot;,&amp;quot;e&amp;quot;:75},{&amp;quot;s&amp;quot;:60,&amp;quot;n&amp;quot;:&amp;quot;a&amp;quot;,&amp;quot;v&amp;quot;:&amp;quot;left&amp;quot;}]}&quot; style=&quot;font-size: 12px;&quot;&gt;&lt;b style=&quot;font-size: 9px;&quot;&gt;SUBSCRIPTION_PRODUCTS&lt;/b&gt;&lt;br style=&quot;&quot;&gt;&lt;br style=&quot;&quot;&gt;&lt;div style=&quot;&quot;&gt;&lt;div style=&quot;&quot;&gt;id: int&lt;/div&gt;&lt;div style=&quot;&quot;&gt;name: String (255)&lt;/div&gt;&lt;div style=&quot;&quot;&gt;description: TEXT&lt;/div&gt;&lt;div style=&quot;&quot;&gt;price: double&lt;/div&gt;&lt;/div&gt;&lt;/span&gt;" style="rounded=1;whiteSpace=wrap;html=1;verticalAlign=middle;fillColor=#e1d5e7;strokeColor=#9673a6;align=left;spacingLeft=4;spacingRight=10;fontSize=9;" parent="1" vertex="1">
          <mxGeometry x="520" y="560.14" width="140" height="169.93" as="geometry" />
        </mxCell>
        <mxCell id="2w4d96TiAbUTxQoSpIZL-1" style="edgeStyle=orthogonalEdgeStyle;rounded=0;orthogonalLoop=1;jettySize=auto;html=1;fillColor=#e1d5e7;strokeColor=#9673a6;entryX=0.5;entryY=0;entryDx=0;entryDy=0;" edge="1" parent="1" target="3eu0gLsUePaidYde5kII-17">
          <mxGeometry relative="1" as="geometry">
            <Array as="points">
              <mxPoint x="450" y="490" />
              <mxPoint x="740" y="490" />
            </Array>
            <mxPoint x="450" y="330" as="sourcePoint" />
            <mxPoint x="740" y="550.14" as="targetPoint" />
          </mxGeometry>
        </mxCell>
        <mxCell id="2w4d96TiAbUTxQoSpIZL-2" value="&lt;b style=&quot;forced-color-adjust: none; color: rgb(0, 0, 0); font-family: Helvetica; font-size: 24px; font-style: normal; font-variant-ligatures: normal; font-variant-caps: normal; letter-spacing: normal; orphans: 2; text-indent: 0px; text-transform: none; widows: 2; word-spacing: 0px; -webkit-text-stroke-width: 0px; white-space: normal; background-color: rgb(251, 251, 251); text-decoration-thickness: initial; text-decoration-style: initial; text-decoration-color: initial;&quot;&gt;Auth Logic&lt;/b&gt;" style="text;whiteSpace=wrap;html=1;strokeWidth=7;fontSize=24;align=center;" vertex="1" parent="1">
          <mxGeometry x="750" y="750.0000000000001" width="330" height="40" as="geometry" />
        </mxCell>
        <mxCell id="2w4d96TiAbUTxQoSpIZL-8" value="" style="shape=image;verticalLabelPosition=bottom;labelBackgroundColor=default;verticalAlign=top;aspect=fixed;imageAspect=0;image=https://cdn.customsigns.com/media/catalog/product/1/4/14622-4-round-enter--exit-door-icon-decal-hcb.png;clipPath=inset(8.33% 6.33% 8% 12% round 49%);rotation=-180;" vertex="1" parent="1">
          <mxGeometry x="260" y="68.25" width="70" height="71.72" as="geometry" />
        </mxCell>
        <mxCell id="2w4d96TiAbUTxQoSpIZL-9" value="" style="shape=image;verticalLabelPosition=bottom;labelBackgroundColor=default;verticalAlign=top;aspect=fixed;imageAspect=0;image=https://cdn-icons-png.freepik.com/512/6681/6681925.png;" vertex="1" parent="1">
          <mxGeometry x="984.38" y="253.75" width="92.5" height="92.5" as="geometry" />
        </mxCell>
        <mxCell id="2w4d96TiAbUTxQoSpIZL-14" value="" style="shape=image;verticalLabelPosition=bottom;labelBackgroundColor=default;verticalAlign=top;aspect=fixed;imageAspect=0;image=https://static.vecteezy.com/system/resources/thumbnails/002/205/969/small_2x/key-icon-free-vector.jpg;clipPath=inset(10% 5% 0% 1% round 36%);" vertex="1" parent="1">
          <mxGeometry x="1009.38" y="279.65" width="42.14" height="40.35" as="geometry" />
        </mxCell>
        <mxCell id="2w4d96TiAbUTxQoSpIZL-16" value="" style="shape=image;verticalLabelPosition=bottom;labelBackgroundColor=default;verticalAlign=top;aspect=fixed;imageAspect=0;image=https://static.vecteezy.com/system/resources/thumbnails/002/205/969/small_2x/key-icon-free-vector.jpg;clipPath=inset(10% 5% 0% 1% round 36%);rotation=45;" vertex="1" parent="1">
          <mxGeometry x="343.92999999999995" y="83.93999999999998" width="42.14" height="40.35" as="geometry" />
        </mxCell>
        <mxCell id="2w4d96TiAbUTxQoSpIZL-21" value="" style="endArrow=none;html=1;rounded=0;fontSize=12;startSize=8;endSize=8;curved=1;strokeWidth=10;fillColor=#a0522d;strokeColor=#6D1F00;shadow=1;flowAnimation=1;" edge="1" parent="1">
          <mxGeometry width="50" height="50" relative="1" as="geometry">
            <mxPoint x="1076.88" y="270" as="sourcePoint" />
            <mxPoint x="1090" y="246.25" as="targetPoint" />
          </mxGeometry>
        </mxCell>
        <mxCell id="2w4d96TiAbUTxQoSpIZL-22" value="" style="endArrow=none;html=1;rounded=0;fontSize=12;startSize=8;endSize=8;curved=1;strokeWidth=10;fillColor=#a0522d;strokeColor=#6D1F00;shadow=1;flowAnimation=1;" edge="1" parent="1">
          <mxGeometry width="50" height="50" relative="1" as="geometry">
            <mxPoint x="1080" y="290.33" as="sourcePoint" />
            <mxPoint x="1100" y="289.99999999999994" as="targetPoint" />
          </mxGeometry>
        </mxCell>
        <mxCell id="2w4d96TiAbUTxQoSpIZL-24" value="" style="endArrow=none;html=1;rounded=0;fontSize=12;startSize=8;endSize=8;curved=1;strokeWidth=10;fillColor=#a0522d;strokeColor=#6D1F00;shadow=1;flowAnimation=1;" edge="1" parent="1">
          <mxGeometry width="50" height="50" relative="1" as="geometry">
            <mxPoint x="1045.41" y="253.75" as="sourcePoint" />
            <mxPoint x="1051.52" y="230" as="targetPoint" />
          </mxGeometry>
        </mxCell>
        <mxCell id="2w4d96TiAbUTxQoSpIZL-25" value="" style="endArrow=none;html=1;rounded=0;fontSize=12;startSize=8;endSize=8;curved=1;strokeWidth=10;fillColor=#a0522d;strokeColor=#6D1F00;shadow=1;flowAnimation=1;" edge="1" parent="1">
          <mxGeometry width="50" height="50" relative="1" as="geometry">
            <mxPoint x="984.3788711870993" y="309.49737773152964" as="sourcePoint" />
            <mxPoint x="958.15" y="310.3673048907388" as="targetPoint" />
          </mxGeometry>
        </mxCell>
        <mxCell id="2w4d96TiAbUTxQoSpIZL-26" value="" style="endArrow=none;html=1;rounded=0;fontSize=12;startSize=8;endSize=8;curved=1;strokeWidth=10;fillColor=#a0522d;strokeColor=#6D1F00;shadow=1;flowAnimation=1;" edge="1" parent="1">
          <mxGeometry width="50" height="50" relative="1" as="geometry">
            <mxPoint x="984.3818282494658" y="279.5685431841831" as="sourcePoint" />
            <mxPoint x="963.0101554303478" y="269.99934443288237" as="targetPoint" />
          </mxGeometry>
        </mxCell>
        <mxCell id="2w4d96TiAbUTxQoSpIZL-27" value="" style="endArrow=none;html=1;rounded=0;fontSize=12;startSize=8;endSize=8;curved=1;strokeWidth=10;fillColor=#a0522d;strokeColor=#6D1F00;shadow=1;flowAnimation=1;" edge="1" parent="1">
          <mxGeometry width="50" height="50" relative="1" as="geometry">
            <mxPoint x="1009.3835010685838" y="255.4897086368366" as="sourcePoint" />
            <mxPoint x="993" y="240" as="targetPoint" />
          </mxGeometry>
        </mxCell>
        <mxCell id="2w4d96TiAbUTxQoSpIZL-28" value="" style="endArrow=none;html=1;rounded=0;fontSize=12;startSize=8;endSize=8;curved=1;strokeWidth=10;fillColor=#a0522d;strokeColor=#6D1F00;shadow=1;flowAnimation=1;" edge="1" parent="1">
          <mxGeometry width="50" height="50" relative="1" as="geometry">
            <mxPoint x="995.0017505342919" y="333.8356295525494" as="sourcePoint" />
            <mxPoint x="980" y="350" as="targetPoint" />
          </mxGeometry>
        </mxCell>
        <mxCell id="2w4d96TiAbUTxQoSpIZL-30" value="" style="endArrow=none;html=1;rounded=0;fontSize=12;startSize=8;endSize=8;curved=1;strokeWidth=10;fillColor=#a0522d;strokeColor=#6D1F00;shadow=1;flowAnimation=1;" edge="1" parent="1">
          <mxGeometry width="50" height="50" relative="1" as="geometry">
            <mxPoint x="1020" y="350" as="sourcePoint" />
            <mxPoint x="1010" y="370" as="targetPoint" />
          </mxGeometry>
        </mxCell>
        <mxCell id="2w4d96TiAbUTxQoSpIZL-31" value="" style="endArrow=none;html=1;rounded=0;fontSize=12;startSize=8;endSize=8;curved=1;strokeWidth=10;fillColor=#a0522d;strokeColor=#6D1F00;shadow=1;flowAnimation=1;" edge="1" parent="1">
          <mxGeometry width="50" height="50" relative="1" as="geometry">
            <mxPoint x="1041.52" y="350" as="sourcePoint" />
            <mxPoint x="1051.52" y="370" as="targetPoint" />
          </mxGeometry>
        </mxCell>
        <mxCell id="2w4d96TiAbUTxQoSpIZL-32" value="" style="endArrow=none;html=1;rounded=0;fontSize=12;startSize=8;endSize=8;curved=1;strokeWidth=10;fillColor=#a0522d;strokeColor=#6D1F00;exitX=1;exitY=0.75;exitDx=0;exitDy=0;shadow=1;flowAnimation=1;" edge="1" parent="1">
          <mxGeometry width="50" height="50" relative="1" as="geometry">
            <mxPoint x="1066.8799999999997" y="339.935" as="sourcePoint" />
            <mxPoint x="1080" y="356.81" as="targetPoint" />
          </mxGeometry>
        </mxCell>
        <mxCell id="2w4d96TiAbUTxQoSpIZL-35" value="" style="endArrow=none;html=1;rounded=0;fontSize=12;startSize=8;endSize=8;curved=1;strokeWidth=10;fillColor=#a0522d;strokeColor=#6D1F00;shadow=1;flowAnimation=1;" edge="1" parent="1">
          <mxGeometry width="50" height="50" relative="1" as="geometry">
            <mxPoint x="1080" y="320.33" as="sourcePoint" />
            <mxPoint x="1100" y="330" as="targetPoint" />
          </mxGeometry>
        </mxCell>
        <mxCell id="2w4d96TiAbUTxQoSpIZL-38" value="" style="shape=image;html=1;verticalAlign=top;verticalLabelPosition=bottom;labelBackgroundColor=#ffffff;imageAspect=0;aspect=fixed;image=https://cdn4.iconfinder.com/data/icons/aiga-symbol-signs/444/aiga_information-128.png" vertex="1" parent="1">
          <mxGeometry x="391.29" y="92.25999999999999" width="23.71" height="23.71" as="geometry" />
        </mxCell>
        <mxCell id="2w4d96TiAbUTxQoSpIZL-42" value="" style="endArrow=classic;html=1;rounded=0;fontSize=12;startSize=8;endSize=8;curved=1;exitX=0.5;exitY=0;exitDx=0;exitDy=0;dashed=1;dashPattern=8 8;" edge="1" parent="1" source="2w4d96TiAbUTxQoSpIZL-9">
          <mxGeometry width="50" height="50" relative="1" as="geometry">
            <mxPoint x="650" y="420" as="sourcePoint" />
            <mxPoint x="760" y="72" as="targetPoint" />
            <Array as="points">
              <mxPoint x="1030" y="160" />
              <mxPoint x="930" y="60" />
            </Array>
          </mxGeometry>
        </mxCell>
        <mxCell id="2w4d96TiAbUTxQoSpIZL-43" value="" style="endArrow=none;html=1;rounded=0;fontSize=12;startSize=8;endSize=8;curved=1;dashed=1;dashPattern=8 8;endFill=0;" edge="1" parent="1" source="2w4d96TiAbUTxQoSpIZL-39">
          <mxGeometry width="50" height="50" relative="1" as="geometry">
            <mxPoint x="700" y="70" as="sourcePoint" />
            <mxPoint x="490" y="100" as="targetPoint" />
            <Array as="points">
              <mxPoint x="540" y="70" />
            </Array>
          </mxGeometry>
        </mxCell>
        <mxCell id="2w4d96TiAbUTxQoSpIZL-45" value="" style="shape=image;verticalLabelPosition=bottom;labelBackgroundColor=default;verticalAlign=top;aspect=fixed;imageAspect=0;image=https://static.vecteezy.com/system/resources/previews/002/387/831/non_2x/footsteps-icon-flat-style-isolated-on-white-background-free-vector.jpg;clipPath=inset(13.33% 55.67% 15.33% 10% round 50%);rotation=120;" vertex="1" parent="1">
          <mxGeometry x="493.29" y="178.05" width="26.71" height="27.75" as="geometry" />
        </mxCell>
        <mxCell id="2w4d96TiAbUTxQoSpIZL-46" value="&lt;b&gt;Guard&lt;/b&gt;" style="text;html=1;align=center;verticalAlign=middle;resizable=0;points=[];autosize=1;strokeColor=none;fillColor=none;fontSize=16;" vertex="1" parent="1">
          <mxGeometry x="260" y="139.97" width="70" height="30" as="geometry" />
        </mxCell>
        <mxCell id="2w4d96TiAbUTxQoSpIZL-47" value="&lt;span style=&quot;forced-color-adjust: none; color: rgb(0, 0, 0); font-family: Helvetica; font-size: 15px; font-style: normal; font-variant-ligatures: normal; font-variant-caps: normal; letter-spacing: normal; orphans: 2; text-align: center; text-indent: 0px; text-transform: none; widows: 2; word-spacing: 0px; -webkit-text-stroke-width: 0px; white-space: normal; background-color: rgb(251, 251, 251); text-decoration-thickness: initial; text-decoration-style: initial; text-decoration-color: initial;&quot;&gt;&lt;b style=&quot;font-size: 15px;&quot;&gt;JWT&lt;/b&gt;&lt;/span&gt;" style="text;whiteSpace=wrap;html=1;fontSize=15;" vertex="1" parent="1">
          <mxGeometry x="343.93" y="119.97" width="25" height="20" as="geometry" />
        </mxCell>
        <mxCell id="2w4d96TiAbUTxQoSpIZL-39" value="" style="shape=image;verticalLabelPosition=bottom;labelBackgroundColor=default;verticalAlign=top;aspect=fixed;imageAspect=0;image=https://static.vecteezy.com/system/resources/thumbnails/002/205/969/small_2x/key-icon-free-vector.jpg;clipPath=inset(10% 5% 0% 1% round 36%);rotation=45;" vertex="1" parent="1">
          <mxGeometry x="718.9300000000001" y="51.909999999999975" width="42.14" height="40.35" as="geometry" />
        </mxCell>
      </root>
    </mxGraphModel>
  </diagram>
</mxfile>
